<svg xmlns="http://www.w3.org/2000/svg" width="160" height="40" viewBox="0 0 160 40" role="img" aria-label="Cofounder">
  <defs>
    <linearGradient id="g" x1="0%" y1="0%" x2="100%" y2="0%">
      <stop offset="0%" stop-color="#00D4AA"/>
      <stop offset="100%" stop-color="#00B894"/>
    </linearGradient>
  </defs>
  <rect width="160" height="40" rx="8" fill="#111827"/>
  <!-- Monogram -->
  <g transform="translate(8,8)">
    <rect x="0" y="0" width="24" height="24" rx="6" fill="url(#g)"/>
    <path d="M7 12a5 5 0 1 1 10 0v4a3 3 0 0 1-3 3h-4a3 3 0 0 1-3-3v-4z" fill="#0B1727" opacity="0.2"/>
    <path d="M12 6a6 6 0 1 0 0 12 6 6 0 0 0 0-12zm0 2a4 4 0 1 1 0 8 4 4 0 0 1 0-8z" fill="#0B1727"/>
  </g>
  <!-- Wordmark -->
  <g transform="translate(42,11)">
    <text x="0" y="14" font-family="Sora, ui-sans-serif, system-ui, -apple-system, Segoe UI, Roboto" font-size="16" font-weight="700" fill="#FFFFFF">c0Foundr</text>
    <text x="0" y="28" font-family="Sora, ui-sans-serif, system-ui, -apple-system, Segoe UI, Roboto" font-size="8" font-weight="600" fill="#9CA3AF" letter-spacing="1.6">DEVELOPER COLLABORATION</text>
  </g>
</svg>
